<svg width="138" height="138" viewBox="0 0 138 138" fill="none" xmlns="http://www.w3.org/2000/svg">
<path d="M66.3047 1.55078C75.3848 1.19786 84.4426 2.68617 92.9365 5.92676C101.43 9.16741 109.187 14.0942 115.74 20.4121C122.293 26.73 127.51 34.3094 131.077 42.6973C134.533 50.8232 136.371 59.5462 136.493 68.375L136.5 69.2295C136.478 85.7851 130.424 101.761 119.479 114.147C108.535 126.534 93.4549 134.476 77.0811 136.48C76.9229 136.497 76.7631 136.481 76.6113 136.433C76.4565 136.383 76.3129 136.301 76.1914 136.191C76.07 136.082 75.9726 135.947 75.9062 135.796C75.8401 135.645 75.8066 135.482 75.8076 135.317V86.7051L90.2305 86.7041C91.1632 86.7057 92.0863 86.5163 92.9424 86.1455C93.7995 85.7741 94.5718 85.2296 95.21 84.5469C95.848 83.8642 96.3384 83.0572 96.6523 82.1768C96.9662 81.2963 97.0968 80.3606 97.0352 79.4277L97.0332 79.3984L96.9971 79.0723C96.7809 77.4511 95.9992 75.9535 94.7842 74.8496C93.4929 73.6766 91.8076 73.0352 90.0645 73.0537H75.8076V58.5762C75.8076 56.1474 76.7695 53.8184 78.4795 52.1025C80.1893 50.3871 82.5072 49.4248 84.9229 49.4248L95.5381 49.4238C96.4711 49.4255 97.3947 49.2353 98.251 48.8643C99.1079 48.4929 99.8795 47.9483 100.518 47.2656C101.155 46.5831 101.647 45.7768 101.961 44.8965C102.275 44.0159 102.405 43.0794 102.343 42.1465L102.342 42.1318L102.341 42.1182L102.305 41.791C102.088 40.1672 101.304 38.6677 100.086 37.5635C98.7921 36.3908 97.1041 35.7507 95.3594 35.7725H84.9229C78.8927 35.7725 73.1101 38.1761 68.8477 42.4531C64.5854 46.73 62.1924 52.53 62.1924 58.5762V73.0537H47.7686C46.8358 73.0522 45.9126 73.2424 45.0566 73.6133C44.1996 73.9847 43.4281 74.5292 42.79 75.2119C42.152 75.8946 41.6606 76.7015 41.3467 77.582C41.0328 78.4625 40.9031 79.3982 40.9648 80.3311L40.9668 80.3604C41.1165 82.1089 41.9221 83.7362 43.2217 84.9141C44.5156 86.0868 46.2035 86.7259 47.9482 86.7041V86.7051H62.1924V135.33C62.1934 135.495 62.159 135.658 62.0928 135.809C62.0266 135.959 61.9297 136.094 61.8086 136.203C61.6875 136.313 61.545 136.394 61.3906 136.444C61.2368 136.494 61.0745 136.511 60.9141 136.493C44.1063 134.436 28.679 126.123 17.6846 113.198C6.85882 100.471 1.10746 84.1857 1.52051 67.4756L1.54492 66.6797C2.84323 31.509 31.2405 2.91815 66.3047 1.55078Z" fill="#71A5FF" stroke="#001F63" stroke-width="3"/>
</svg>
