<svg width="138" height="138" viewBox="0 0 138 138" fill="none" xmlns="http://www.w3.org/2000/svg">
<path d="M68.999 1.5C86.8955 1.51906 104.053 8.63723 116.708 21.292C129.165 33.7491 136.258 50.5697 136.494 68.1631L136.5 69.002C136.5 82.3515 132.541 95.4012 125.124 106.501C117.707 117.601 107.165 126.253 94.8311 131.362C82.4971 136.471 68.9247 137.808 55.8311 135.203C42.7375 132.599 30.7105 126.169 21.2705 116.729C11.8305 107.29 5.40142 95.2625 2.79688 82.1689C0.19239 69.0753 1.52886 55.5029 6.6377 43.1689C11.7466 30.835 20.3988 20.293 31.499 12.876C42.5991 5.45917 55.6491 1.5002 68.999 1.5ZM55.9004 92.1309C55.8348 92.2437 55.7631 92.353 55.6855 92.458L55.6787 92.4678L46.3164 105.352L46.3105 105.36L46.3047 105.368C46.3016 105.373 46.291 105.388 46.2559 105.43C46.2363 105.453 46.2213 105.47 46.1934 105.503C46.1692 105.531 46.1391 105.568 46.1074 105.606L45.5771 106.26L45.8574 107.053L52.5322 125.896L52.7959 126.641L53.5596 126.844C63.6766 129.538 74.3234 129.538 84.4404 126.844L85.2041 126.641L85.4678 125.896L92.1426 107.053L92.4238 106.26L91.8926 105.606C91.8609 105.568 91.8308 105.531 91.8066 105.503C91.7787 105.47 91.7637 105.453 91.7441 105.43C91.709 105.388 91.6984 105.373 91.6953 105.368L91.6895 105.36L91.6836 105.352L82.3213 92.4678L82.3145 92.458L82.2031 92.2969C82.1673 92.2424 82.1324 92.1873 82.0996 92.1309L81.666 91.3848H56.334L55.9004 92.1309ZM112.103 59.3154L111.86 59.4062L96.7432 64.3193C96.5992 64.3628 96.4529 64.3982 96.3047 64.4238L95.4297 64.5752L95.1416 65.4141L87.9824 86.2607L87.708 87.0596L88.249 87.708C88.353 87.8328 88.4235 87.9181 88.4854 88.002L97.8418 100.854C97.9199 100.961 97.9925 101.072 98.0586 101.188L98.4902 101.94L99.3584 101.941L118.154 101.961L118.974 101.962L119.417 101.272C125.063 92.4936 128.301 82.3837 128.804 71.958L128.841 71.1738L128.218 70.6963L113.622 59.4971L112.916 58.9551L112.103 59.3154ZM24.3711 59.4971L9.77539 70.6963L9.15234 71.1738L9.19043 71.958C9.69301 82.3837 12.93 92.4937 18.5762 101.272L19.0186 101.961H39.5088L39.9414 101.207C40.0075 101.092 40.08 100.98 40.1582 100.873L40.1592 100.872L49.5078 88.002C49.5697 87.918 49.6402 87.8327 49.7441 87.708L50.2852 87.0596L50.0107 86.2607L42.8516 65.4141L42.5635 64.5752L41.6885 64.4238L41.4678 64.3779L41.25 64.3193L26.1328 59.4062L26.125 59.4033C26.0458 59.378 25.9677 59.3491 25.8916 59.3154L25.0771 58.9551L24.3711 59.4971ZM89.9053 13.5791L73.458 24.8916L72.8076 25.3379V43.6621L73.458 44.1084L92.3926 57.1328L93.1123 57.627L93.8975 57.2461C94.0481 57.1731 94.2038 57.1106 94.3633 57.0596L94.3691 57.0576L109.51 52.1416L109.526 52.1367L109.542 52.1309L109.621 52.1025H110.57L110.89 51.0293L116.197 33.1553L116.419 32.4072L115.934 31.7949C109.456 23.6439 100.973 17.3141 91.3154 13.4238L90.5684 13.123L89.9053 13.5791ZM65.1924 25.3389L64.543 24.8916L48.1162 13.5801L47.4521 13.123L46.7051 13.4238C37.0321 17.3167 28.5366 23.6565 22.0527 31.8223L21.5674 32.4336L21.79 33.1816L27.0977 51.0557L27.3408 51.876L28.1719 52.084C28.3327 52.1242 28.3923 52.139 28.4443 52.1572L28.4609 52.1631L28.4766 52.168L43.6172 57.084L43.624 57.0869C43.7833 57.1379 43.9393 57.1995 44.0898 57.2725L44.875 57.6543L45.5947 57.1582L64.543 44.1084L65.1924 43.6611V25.3389Z" fill="#71A5FF" stroke="#001F63" stroke-width="3"/>
</svg>
