<svg width="138" height="138" viewBox="0 0 138 138" fill="none" xmlns="http://www.w3.org/2000/svg">
<path d="M100.845 1.5L101.729 1.51172C110.862 1.74774 119.57 5.47847 126.046 11.9541C132.73 18.6386 136.49 27.702 136.5 37.1553V100.846C136.49 110.299 132.73 119.362 126.046 126.046C119.361 132.73 110.298 136.49 100.845 136.5H37.1553C27.702 136.49 18.6386 132.73 11.9541 126.046C5.47847 119.57 1.74774 110.862 1.51172 101.729L1.5 100.845V37.1553C1.51016 27.702 5.26964 18.6386 11.9541 11.9541C18.4297 5.47846 27.1381 1.74774 36.2705 1.51172L37.1553 1.5H100.845ZM81.7607 38.1924C75.6676 35.6685 68.9626 35.0083 62.4941 36.2949C56.0258 37.5816 50.0843 40.7575 45.4209 45.4209C40.7575 50.0843 37.5816 56.0258 36.2949 62.4941C35.0083 68.9626 35.6685 75.6676 38.1924 81.7607C40.7163 87.8539 44.9899 93.0624 50.4736 96.7266C55.9574 100.391 62.4048 102.346 69 102.346H69.002C77.8425 102.336 86.3181 98.8206 92.5693 92.5693C98.8206 86.3181 102.336 77.8425 102.346 69.002V69C102.346 62.4048 100.391 55.9574 96.7266 50.4736C93.0624 44.9899 87.8539 40.7163 81.7607 38.1924ZM69 49.2695C74.2329 49.2695 79.2519 51.3476 82.9521 55.0479C86.6524 58.7481 88.7305 63.7671 88.7305 69C88.7305 72.9024 87.5733 76.7172 85.4053 79.9619C83.2373 83.2065 80.1559 85.7352 76.5508 87.2285C72.9455 88.7219 68.9778 89.1129 65.1504 88.3516C61.3231 87.5902 57.8072 85.7115 55.0479 82.9521C52.2885 80.1928 50.4098 76.6769 49.6484 72.8496C48.8871 69.0222 49.2781 65.0545 50.7715 61.4492C52.2648 57.8441 54.7935 54.7627 58.0381 52.5947C61.2828 50.4267 65.0976 49.2695 69 49.2695ZM112.429 20.4512C110.7 19.7351 108.797 19.5471 106.962 19.9121C105.127 20.2772 103.44 21.1787 102.117 22.502C100.794 23.8252 99.8934 25.5114 99.5283 27.3467C99.1633 29.182 99.3503 31.0847 100.066 32.8135C100.783 34.5421 101.995 36.02 103.551 37.0596C105.107 38.0992 106.936 38.6543 108.808 38.6543C111.317 38.6543 113.724 37.6571 115.498 35.8828C117.272 34.1084 118.27 31.7017 118.27 29.1924C118.27 27.3211 117.714 25.4915 116.675 23.9355C115.635 22.3797 114.157 21.1673 112.429 20.4512Z" fill="#71A5FF" stroke="#001F63" stroke-width="3"/>
</svg>
