<svg width="128" height="131" viewBox="0 0 128 131" fill="none" xmlns="http://www.w3.org/2000/svg">
<path d="M96 1.5C97.045 1.5 98.0303 1.89159 98.7432 2.5625C99.453 3.23051 99.833 4.11651 99.833 5.01953V11.5391H117.333C119.792 11.5391 122.135 12.4591 123.848 14.0713C125.558 15.6805 126.5 17.843 126.5 20.0771V120.465C126.5 122.699 125.558 124.862 123.848 126.472C122.135 128.084 119.792 129.004 117.333 129.004H10.667C8.20757 129.004 5.8654 128.084 4.15234 126.472C2.44235 124.862 1.5 122.699 1.5 120.465V20.0771C1.50011 17.843 2.44245 15.6805 4.15234 14.0713C5.86541 12.4591 8.20752 11.5391 10.667 11.5391H28.167V5.01953C28.167 4.11651 28.547 3.23051 29.2568 2.5625C29.9697 1.89159 30.955 1.5 32 1.5C33.045 1.5 34.0303 1.89159 34.7432 2.5625C35.453 3.23051 35.833 4.11651 35.833 5.01953V11.5391H92.167V5.01953C92.167 4.11651 92.547 3.23051 93.2568 2.5625C93.9697 1.89159 94.955 1.5 96 1.5ZM115.833 118.965H10.667V121.965H118.833V50.1934H115.833V118.965ZM34.667 88.8486C32.8077 88.8486 30.9831 89.3672 29.4238 90.3477C27.8637 91.3287 26.6328 92.7329 25.9023 94.3926C25.1714 96.0535 24.9785 97.8873 25.3525 99.6572C25.7264 101.426 26.6469 103.038 27.9814 104.294C29.3152 105.549 31.0044 106.395 32.8301 106.736C34.6554 107.078 36.548 106.904 38.2725 106.231C39.9976 105.559 41.4875 104.415 42.542 102.93C43.5974 101.443 44.167 99.6847 44.167 97.8779C44.167 95.4529 43.1422 93.1472 41.3516 91.4619C39.564 89.7796 37.1581 88.8487 34.667 88.8486ZM64 88.8486C62.1407 88.8486 60.3161 89.3671 58.7568 90.3477C57.1967 91.3287 55.9668 92.7329 55.2363 94.3926C54.5053 96.0536 54.3124 97.8872 54.6865 99.6572C55.0605 101.426 55.9807 103.038 57.3154 104.294C58.6492 105.549 60.3375 106.395 62.1631 106.736C63.9885 107.078 65.8819 106.904 67.6064 106.231C69.3314 105.559 70.8206 104.415 71.875 102.93C72.9304 101.443 73.5 99.6847 73.5 97.8779C73.5 95.4529 72.4752 93.1472 70.6846 91.4619C68.897 89.7796 66.4911 88.8486 64 88.8486ZM93.333 88.8486C91.4737 88.8487 89.6491 89.3671 88.0898 90.3477C86.5298 91.3287 85.2998 92.7329 84.5693 94.3926C83.8383 96.0536 83.6454 97.8873 84.0195 99.6572C84.3935 101.426 85.3138 103.038 86.6484 104.294C87.9822 105.549 89.6714 106.395 91.4971 106.736C93.3224 107.078 95.215 106.904 96.9395 106.231C98.6644 105.559 100.154 104.415 101.208 102.93C102.263 101.443 102.833 99.6847 102.833 97.8779C102.833 95.453 101.809 93.1472 100.019 91.4619C98.231 89.7795 95.8242 88.8486 93.333 88.8486ZM64 63.752C62.1406 63.752 60.3161 64.2704 58.7568 65.251C57.1967 66.232 55.9668 67.6362 55.2363 69.2959C54.5053 70.9569 54.3124 72.7906 54.6865 74.5605C55.0605 76.3295 55.9808 77.9412 57.3154 79.1973C58.6491 80.4524 60.3376 81.2979 62.1631 81.6396C63.9885 81.9814 65.8819 81.8071 67.6064 81.1348C69.3315 80.4623 70.8205 79.3173 71.875 77.832C72.9302 76.3456 73.5 74.5879 73.5 72.7812C73.5 70.3562 72.4753 68.0505 70.6846 66.3652C68.897 64.6829 66.4912 63.752 64 63.752ZM93.333 63.752C91.4737 63.752 89.6491 64.2705 88.0898 65.251C86.5299 66.232 85.2998 67.6363 84.5693 69.2959C83.8384 70.9568 83.6455 72.7907 84.0195 74.5605C84.3935 76.3295 85.3138 77.9412 86.6484 79.1973C87.9822 80.4525 89.6714 81.2979 91.4971 81.6396C93.3223 81.9813 95.215 81.807 96.9395 81.1348C98.6646 80.4623 100.154 79.3173 101.208 77.832C102.263 76.3456 102.833 74.5879 102.833 72.7812C102.833 70.3564 101.809 68.0505 100.019 66.3652C98.231 64.6829 95.8242 63.752 93.333 63.752ZM99.833 25.0967C99.833 25.9997 99.4529 26.8857 98.7432 27.5537C98.0303 28.2246 97.045 28.6162 96 28.6162C94.955 28.6162 93.9697 28.2246 93.2568 27.5537C92.5471 26.8857 92.167 25.9997 92.167 25.0967V18.5771H35.833V25.0967C35.833 25.9997 35.4529 26.8857 34.7432 27.5537C34.0303 28.2246 33.045 28.6162 32 28.6162C30.955 28.6162 29.9697 28.2246 29.2568 27.5537C28.5471 26.8857 28.167 25.9997 28.167 25.0967V20.0771H25.167V25.0967C25.167 26.8561 25.9106 28.5237 27.2012 29.7383C28.4887 30.9499 30.2161 31.6162 32 31.6162C33.7839 31.6162 35.5113 30.9499 36.7988 29.7383C38.0894 28.5237 38.833 26.8561 38.833 25.0967V21.5771H89.167V25.0967C89.167 26.8561 89.9106 28.5237 91.2012 29.7383C92.4887 30.9499 94.2161 31.6162 96 31.6162C97.7839 31.6162 99.5113 30.9499 100.799 29.7383C102.089 28.5237 102.833 26.8561 102.833 25.0967V21.5771H115.833V38.6553H10.667V41.6553H118.833V18.5771H99.833V25.0967Z" fill="#F8D074" stroke="#001F63" stroke-width="3"/>
</svg>
