<svg width="138" height="139" viewBox="0 0 138 139" fill="none" xmlns="http://www.w3.org/2000/svg">
<path d="M69.0215 1.5C79.2758 1.50427 89.3946 3.84413 98.6094 8.34277C107.824 12.8415 115.893 19.3811 122.203 27.4639C128.514 35.5466 132.9 44.9603 135.029 54.9912C137.158 65.0221 136.974 75.4064 134.49 85.3555C132.007 95.3045 127.289 104.557 120.696 112.411C114.103 120.265 105.807 126.514 96.4385 130.683C87.0697 134.852 76.8741 136.831 66.626 136.472C56.3779 136.112 46.3464 133.423 37.293 128.607L36.7246 128.305L36.1143 128.509L13.5215 136.039V136.04C11.9152 136.576 10.1909 136.653 8.54297 136.264C6.89506 135.875 5.3877 135.035 4.19043 133.838C2.99316 132.641 2.15358 131.133 1.76465 129.485C1.37574 127.837 1.4526 126.113 1.98828 124.507H1.98926L9.51953 101.914L9.72363 101.303L9.4209 100.734C3.94328 90.4472 1.22206 78.9173 1.52246 67.2666C1.82295 55.6156 5.13495 44.2403 11.1357 34.249C17.1365 24.2578 25.6217 15.9899 35.7656 10.251C45.9095 4.51207 57.3667 1.49746 69.0215 1.5Z" fill="#F8D074" stroke="#001F63" stroke-width="3"/>
</svg>
