<svg width="138" height="138" viewBox="0 0 138 138" fill="none" xmlns="http://www.w3.org/2000/svg">
<path d="M10.6152 1.5H127.385C129.802 1.50004 132.121 2.46049 133.83 4.16992C135.54 5.87935 136.5 8.19774 136.5 10.6152V127.385C136.5 129.802 135.54 132.121 133.83 133.83C132.121 135.54 129.802 136.5 127.385 136.5H10.6152C8.19774 136.5 5.87935 135.54 4.16992 133.83C2.46049 132.121 1.50004 129.802 1.5 127.385V10.6152C1.50004 8.19774 2.46049 5.87935 4.16992 4.16992C5.87935 2.46049 8.19774 1.50004 10.6152 1.5ZM42.4619 51.5771C40.6564 51.5771 38.9242 52.2946 37.6475 53.5713C36.371 54.8479 35.6543 56.5794 35.6543 58.3848V100.846C35.6543 102.651 36.3708 104.383 37.6475 105.66C38.9242 106.937 40.6564 107.654 42.4619 107.654C44.2673 107.654 45.9988 106.937 47.2754 105.66C48.5521 104.383 49.2695 102.651 49.2695 100.846V58.3848C49.2695 56.5794 48.5519 54.848 47.2754 53.5713C45.9988 52.2947 44.2673 51.5772 42.4619 51.5771ZM94.1533 54.5381C90.0787 52.3794 85.4929 51.3713 80.8887 51.6221C76.8967 51.8396 73.0214 52.9974 69.5742 54.9883C69.0863 54.1499 68.4225 53.4179 67.6172 52.8496C66.2547 51.8882 64.5867 51.4597 62.9297 51.6465C61.2728 51.8333 59.7422 52.6219 58.6279 53.8623C57.5137 55.1029 56.8932 56.7095 56.8848 58.377V100.846C56.8848 102.651 57.6022 104.383 58.8789 105.66C60.1556 106.937 61.887 107.654 63.6924 107.654C65.4978 107.654 67.2292 106.937 68.5059 105.66C69.7825 104.383 70.5 102.651 70.5 100.846V76.9619C70.5 73.8405 71.7401 70.8468 73.9473 68.6396C76.1544 66.4325 79.1481 65.1924 82.2695 65.1924C85.3908 65.1925 88.3847 66.4326 90.5918 68.6396C92.7987 70.8468 94.0381 73.8407 94.0381 76.9619V100.846C94.0381 102.651 94.7555 104.383 96.0322 105.66C97.3088 106.937 99.0404 107.654 100.846 107.654C102.651 107.654 104.383 106.937 105.66 105.66C106.937 104.383 107.654 102.651 107.654 100.846V76.9609C107.653 72.3499 106.395 67.8263 104.017 63.876C101.638 59.9255 98.228 56.6969 94.1533 54.5381ZM46.082 31.0664C44.3532 30.3504 42.4505 30.1633 40.6152 30.5283C38.7802 30.8934 37.0945 31.7942 35.7715 33.1172C34.4483 34.4404 33.5467 36.1266 33.1816 37.9619C32.8166 39.7972 33.0046 41.6999 33.7207 43.4287C34.4368 45.1574 35.6492 46.6352 37.2051 47.6748C38.761 48.7144 40.5906 49.2695 42.4619 49.2695C44.9711 49.2694 47.378 48.2723 49.1523 46.498C50.9266 44.7237 51.9229 42.3169 51.9229 39.8076C51.9228 37.9363 51.3678 36.1067 50.3281 34.5508C49.2885 32.9951 47.8107 31.7825 46.082 31.0664Z" fill="#71A5FF" stroke="#001F63" stroke-width="3"/>
</svg>
