<svg width="161" height="138" viewBox="0 0 161 138" fill="none" xmlns="http://www.w3.org/2000/svg">
<path d="M41.6064 1.5C52.258 1.48515 62.4791 5.7024 70.0215 13.2236L70.0586 13.2588L79.4609 22.0156L80.4824 22.9658L81.5049 22.0166L90.9004 13.2891L90.918 13.2725L90.9355 13.2549C98.4802 5.76578 108.684 1.56905 119.314 1.58203C129.613 1.59468 139.5 5.55694 146.95 12.6299L147.664 13.3242C155.19 20.8552 159.417 31.0663 159.417 41.7129C159.417 52.3603 155.189 62.5724 147.662 70.1035L147.654 70.1113L115.6 102.672L83.5449 135.233C83.1498 135.635 82.6785 135.953 82.1592 136.171C81.6399 136.388 81.0825 136.5 80.5195 136.5C79.9566 136.5 79.3992 136.388 78.8799 136.171C78.3606 135.953 77.8892 135.635 77.4941 135.233L77.4932 135.232L13.3125 70.1104L13.3027 70.1016L12.6055 69.3887C5.4992 61.9417 1.51447 52.0376 1.5 41.7188C1.48507 31.067 5.70228 20.8452 13.2236 13.3027C20.745 5.76043 30.9548 1.51493 41.6064 1.5Z" fill="#F8D074" stroke="#001F63" stroke-width="3"/>
</svg>
