<svg width="179" height="138" viewBox="0 0 179 138" fill="none" xmlns="http://www.w3.org/2000/svg">
<path d="M172.727 133.932C170.59 135.586 167.958 136.5 165.23 136.5H13.7695C11.0415 136.5 8.40903 135.586 6.27246 133.932L74.374 71.042L88.4814 84.1006L89.5 85.0439L90.5186 84.1006L104.625 71.042L172.727 133.932ZM72.165 68.998L4.13965 131.817C2.44024 129.658 1.50004 126.979 1.5 124.2V6.90039C1.5 5.95845 1.74619 5.04221 2.20117 4.2373L72.165 68.998ZM176.798 4.2373C177.253 5.04231 177.5 5.95828 177.5 6.90039V124.2C177.5 126.979 176.559 129.658 174.859 131.817L106.834 68.998L176.798 4.2373ZM6.88477 1.5H172.115C173.007 1.5 173.877 1.72195 174.65 2.13574L103.605 67.8994L89.5 80.9561L75.3945 67.8994L4.34863 2.13574C5.12214 1.72168 5.99236 1.5 6.88477 1.5Z" fill="#F8D074" stroke="#001F63" stroke-width="3"/>
</svg>
