<svg width="138" height="138" viewBox="0 0 138 138" fill="none" xmlns="http://www.w3.org/2000/svg">
<path d="M52.6523 3.50977C62.6005 1.02631 72.9837 0.841801 83.0137 2.9707C93.0437 5.09963 102.457 9.48639 110.539 15.7969C118.621 22.1073 125.159 30.1759 129.657 39.3906C134.155 48.6054 136.496 58.7242 136.5 68.9785C136.503 80.6334 133.487 92.0904 127.749 102.234C122.011 112.378 113.744 120.864 103.754 126.864C93.7636 132.865 82.39 136.177 70.7402 136.478C59.0905 136.778 47.5616 134.057 37.2754 128.579L36.707 128.276L36.0957 128.48L13.5049 136.011V136.012C11.8988 136.547 10.1751 136.624 8.52734 136.235C6.87972 135.846 5.37291 135.007 4.17578 133.81C2.9786 132.612 2.1379 131.105 1.74902 129.457C1.36015 127.809 1.438 126.085 1.97363 124.479L9.50391 101.886L9.70703 101.275L9.40527 100.707C4.5904 91.6536 1.90157 81.6221 1.54199 71.374C1.18243 61.1259 3.16153 50.9303 7.33008 41.5615C11.4986 32.1928 17.7466 23.897 25.5996 17.3037C33.4526 10.7105 42.7043 5.99324 52.6523 3.50977ZM79.6152 77.4727L59.4453 57.3018L58.3848 56.2402L57.3242 57.3018L32.3379 82.29L34.459 84.4111L58.3838 60.4834L78.5547 80.6553L79.6152 81.7158L80.6758 80.6553L105.662 55.667L103.541 53.5459L79.6152 77.4727Z" fill="#F8D074" stroke="#001F63" stroke-width="3"/>
</svg>
