<svg width="180" height="138" viewBox="0 0 180 138" fill="none" xmlns="http://www.w3.org/2000/svg">
<path d="M89.5781 1.50098H89.5879C94.5759 1.46965 99.5105 2.53041 104.045 4.60938C108.579 6.68834 112.604 9.73502 115.836 13.5352L116.979 14.8779L118.121 13.5352C121.353 9.73504 125.378 6.68834 129.912 4.60938C134.447 2.53041 139.381 1.46965 144.369 1.50098H144.379C163.158 1.50118 178.467 16.9609 178.467 36.001C178.467 49.3172 171.625 63.0967 157.695 77.1621L154.485 80.4033L158.992 79.7002C161.238 79.3497 163.532 79.46 165.733 80.0244C167.935 80.5889 169.999 81.5956 171.8 82.9834L172.205 83.2949H172.226C174.328 84.9996 175.994 87.1845 177.08 89.6689C178.233 92.3053 178.696 95.192 178.425 98.0566C178.154 100.921 177.158 103.67 175.532 106.043C173.908 108.413 171.708 110.33 169.14 111.616L168.851 111.748L139.734 124.14L139.717 124.147C139.512 124.238 139.3 124.309 139.082 124.36L139.074 124.362L139.065 124.365L91.0742 136.365H91.0723C90.7167 136.455 90.351 136.5 89.9844 136.5H11.998C9.21405 136.5 6.54391 135.394 4.5752 133.425C2.60645 131.456 1.5 128.785 1.5 126V96C1.50005 93.2152 2.60649 90.5442 4.5752 88.5752C6.5439 86.6063 9.21411 85.5 11.998 85.5H34.1328L34.5713 85.0615L51.5332 68.1113L51.5361 68.1094C54.3944 65.2401 57.9768 63.1988 61.9023 62.2041L63.8623 61.708L62.8184 59.9756C57.8184 51.6823 55.4903 43.9297 55.4902 36.001C55.4902 16.9609 70.799 1.50123 89.5781 1.50098ZM67.4424 70.5C65.6692 70.495 63.9124 70.8421 62.2744 71.5215C60.6368 72.2007 59.1505 73.1989 57.9014 74.457L40.9316 91.4219L40.4922 91.8613V127.5H89.418L89.5977 127.455L136.411 115.748L136.526 115.719L136.636 115.673L165.13 103.538L165.056 103.178L165.218 103.485C166.955 102.573 168.293 101.05 168.975 99.21C169.656 97.3704 169.634 95.3435 168.911 93.5195C168.188 91.6954 166.816 90.2027 165.06 89.3291C163.412 88.5101 161.536 88.2891 159.75 88.6973L159.421 88.7803L159.221 88.832L108.995 100.387C108.661 100.461 108.318 100.499 107.976 100.5H83.9844C82.7915 100.5 81.6474 100.026 80.8037 99.1826C79.96 98.3387 79.4854 97.1936 79.4854 96C79.4854 94.8065 79.96 93.6622 80.8037 92.8184C81.6474 91.9745 82.7914 91.5001 83.9844 91.5H104.98C107.765 91.5 110.435 90.3939 112.404 88.4248C114.373 86.4557 115.479 83.7847 115.479 81C115.479 78.2155 114.373 75.5452 112.404 73.5762C110.435 71.607 107.765 70.5 104.98 70.5H67.4424Z" fill="#5CAA6A" stroke="#001F63" stroke-width="3"/>
</svg>
