<svg width="138" height="138" viewBox="0 0 138 138" fill="none" xmlns="http://www.w3.org/2000/svg">
<path d="M1.5 38.6367C1.48375 29.5707 4.76853 20.8087 10.7402 13.9873C16.7095 7.1688 24.9553 2.75433 33.9395 1.56934C35.9816 1.32055 38.0497 1.73916 39.835 2.76172C41.621 3.78475 43.0283 5.35851 43.8467 7.24707L43.8545 7.26465L58.3301 39.5312V39.6025L58.4512 39.8848C59.0703 41.3304 59.3229 42.907 59.1855 44.4736C59.0482 46.0403 58.5252 47.5483 57.6641 48.8643C57.5758 48.9957 57.4765 49.1257 57.3584 49.2734L43.04 66.3018L42.4102 67.0508L42.8418 67.9297C48.1586 78.7336 59.388 89.8758 70.3252 95.1885L71.208 95.6172L71.9541 94.9814L88.7412 80.6699C88.8619 80.5685 88.9886 80.4736 89.1201 80.3867L89.125 80.3838C90.4444 79.5038 91.9628 78.9661 93.542 78.8203C95.1193 78.6747 96.7083 78.924 98.165 79.5459L98.2217 79.5723L98.2295 79.5762L98.2363 79.5801L130.743 94.1455L130.759 94.1533C132.646 94.9727 134.218 96.3801 135.24 98.166C136.26 99.9479 136.677 102.011 136.431 104.049C135.248 113.037 130.834 121.288 124.013 127.26C117.191 133.232 108.429 136.516 99.3633 136.5H99.3604C45.4026 136.5 1.5 92.5966 1.5 38.6387V38.6367Z" fill="#F8D074" stroke="#001F63" stroke-width="3"/>
</svg>
