<svg width="188" height="138" viewBox="0 0 188 138" fill="none" xmlns="http://www.w3.org/2000/svg">
<path d="M93.9482 39.1338C101.495 39.1338 108.852 41.4998 114.985 45.8994C121.119 50.2991 125.72 56.5115 128.143 63.6631C130.565 70.8148 130.687 78.5468 128.491 85.7715C126.295 92.996 121.892 99.3503 115.9 103.941L112.39 106.632H116.55C127.221 111.314 136.135 119.263 142.002 129.342V129.343C142.421 130.068 142.641 130.892 142.641 131.729C142.641 132.567 142.42 133.39 142.001 134.115C141.582 134.841 140.981 135.443 140.256 135.861C139.531 136.28 138.709 136.5 137.872 136.5H50.127C49.2902 136.5 48.468 136.28 47.7432 135.861C47.0184 135.443 46.4167 134.84 45.998 134.115C45.5794 133.39 45.3585 132.567 45.3584 131.729C45.3584 130.893 45.5779 130.071 45.9951 129.347C51.9 119.185 60.9014 111.182 71.6807 106.509L74.0215 105.493L71.9961 103.941C66.0048 99.3503 61.6021 92.9959 59.4062 85.7715C57.2104 78.5468 57.3323 70.8148 59.7549 63.6631C62.1775 56.5115 66.7789 50.2991 72.9121 45.8994C79.0452 41.4999 86.402 39.1339 93.9482 39.1338ZM43.3125 1.50391C48.0787 1.42265 52.7949 2.48602 57.0664 4.60352C61.3381 6.72115 65.0412 9.83191 67.8643 13.6758C70.6853 17.517 72.5461 21.9783 73.291 26.6865V26.6875C73.3429 27.0298 73.2813 27.3794 73.1162 27.6836C72.9511 27.9878 72.6918 28.2304 72.377 28.373L72.3662 28.3779C63.4134 32.5192 55.8313 39.1362 50.5146 47.4482C45.198 55.7603 42.3688 65.4207 42.3604 75.2891V75.29C42.3604 76.2637 42.3596 77.3026 42.4561 78.3535C42.4657 78.5719 42.4315 78.7902 42.3555 78.9951C42.2783 79.2031 42.1597 79.3931 42.0068 79.5537C41.854 79.7143 41.6704 79.8425 41.4668 79.9297C41.2632 80.0169 41.0437 80.0608 40.8223 80.0605H6.25293C5.17714 80.0622 4.132 79.7002 3.28809 79.0322C2.44928 78.3683 1.85825 77.4411 1.60938 76.4004C1.45639 75.6767 1.46457 74.9284 1.63281 74.208C1.80194 73.4841 2.12864 72.8063 2.58984 72.2236L2.60059 72.209L2.61133 72.1953C7.98473 65.0652 15.1144 59.451 23.3037 55.9014L25.4307 54.9795L23.7188 53.417C20.1959 50.2032 17.4936 46.1914 15.8389 41.7178C14.1841 37.2441 13.6241 32.4386 14.207 27.7041C14.79 22.9697 16.499 18.4438 19.1895 14.5059C21.8799 10.5681 25.474 7.33236 29.6709 5.07031C33.8679 2.80822 38.5461 1.58522 43.3125 1.50391ZM145.639 75.2891C145.63 65.4206 142.801 55.7603 137.484 47.4482C132.168 39.1362 124.586 32.5192 115.633 28.3779L115.622 28.373L115.507 28.3145C115.244 28.1684 115.027 27.9498 114.883 27.6836C114.719 27.382 114.658 27.0358 114.707 26.6963C115.451 21.9846 117.312 17.5196 120.135 13.6758C122.958 9.83191 126.661 6.72115 130.933 4.60352C135.204 2.48601 139.92 1.42267 144.687 1.50391C149.453 1.58522 154.131 2.80825 158.328 5.07031C162.525 7.33234 166.119 10.5681 168.81 14.5059C171.5 18.4438 173.209 22.9697 173.792 27.7041C174.375 32.4386 173.815 37.2441 172.16 41.7178C170.505 46.1913 167.804 50.2032 164.281 53.417L162.57 54.9775L164.693 55.9004C172.866 59.4536 179.979 65.0648 185.34 72.1865L185.79 72.7842H185.793C186.054 73.2244 186.25 73.7029 186.367 74.2041C186.537 74.9263 186.543 75.6769 186.389 76.4023C186.139 77.4423 185.549 78.3687 184.711 79.0322C183.867 79.7002 182.822 80.0622 181.746 80.0605H147.177C146.955 80.0608 146.736 80.0168 146.532 79.9297C146.329 79.8425 146.145 79.7143 145.992 79.5537C145.839 79.3932 145.721 79.2031 145.644 78.9951C145.568 78.7902 145.533 78.5719 145.543 78.3535C145.639 77.3026 145.639 76.2637 145.639 75.29V75.2891Z" fill="#5CAA6A" stroke="#001F63" stroke-width="3"/>
</svg>
