<svg width="94" height="69" viewBox="0 0 94 69" fill="none" xmlns="http://www.w3.org/2000/svg">
<path d="M59.6538 69H86.7692C88.687 69 90.5261 68.2348 91.8822 66.8727C93.2382 65.5106 94 63.6632 94 61.7368V32.6842C94 30.7579 93.2382 28.9105 91.8822 27.5484C90.5261 26.1863 88.687 25.4211 86.7692 25.4211L59.6538 25.4211V21.7895C59.6538 17.9369 61.1775 14.242 63.8895 11.5178C66.6016 8.79361 70.2799 7.26316 74.1154 7.26316C75.0742 7.26316 75.9938 6.88055 76.6718 6.1995C77.3499 5.51844 77.7308 4.59473 77.7308 3.63158C77.7308 2.66842 77.3499 1.74471 76.6718 1.06366C75.9938 0.382607 75.0742 0 74.1154 0C68.3641 0.00601196 62.85 2.3036 58.7832 6.38862C54.7164 10.4736 52.4291 16.0124 52.4231 21.7895L52.4231 61.7368C52.4231 63.6632 53.1849 65.5106 54.5409 66.8727C55.897 68.2348 57.7361 69 59.6538 69ZM7.23077 69H34.3462C36.2639 69 38.103 68.2348 39.4591 66.8727C40.8151 65.5106 41.5769 63.6632 41.5769 61.7368L41.5769 32.6842C41.5769 30.7579 40.8151 28.9105 39.4591 27.5484C38.103 26.1863 36.2639 25.4211 34.3462 25.4211L7.23077 25.4211L7.23077 21.7895C7.23077 17.9369 8.75439 14.242 11.4665 11.5178C14.1785 8.79361 17.8569 7.26316 21.6923 7.26316C22.6512 7.26316 23.5708 6.88055 24.2488 6.1995C24.9268 5.51844 25.3077 4.59473 25.3077 3.63158C25.3077 2.66842 24.9268 1.74471 24.2488 1.06366C23.5708 0.382607 22.6512 0 21.6923 0C15.941 0.00601196 10.4269 2.3036 6.36014 6.38862C2.29333 10.4736 0.00598145 16.0124 0 21.7895L0 61.7368C0 63.6632 0.76181 65.5106 2.11784 66.8727C3.47388 68.2348 5.31306 69 7.23077 69Z" fill="#FF7100"/>
</svg>
