<svg width="35" height="35" viewBox="0 0 35 35" fill="none" xmlns="http://www.w3.org/2000/svg">
<circle cx="17.5" cy="17.5" r="17.5" fill="#F5EEE1"/>
<path d="M24.9342 18.9342L13.0328 30.8356C12.9223 30.9462 12.791 31.0339 12.6465 31.0938C12.502 31.1536 12.3472 31.1844 12.1908 31.1844C12.0344 31.1844 11.8796 31.1536 11.7351 31.0938C11.5906 31.0339 11.4594 30.9462 11.3488 30.8356C11.2382 30.7251 11.1505 30.5938 11.0906 30.4493C11.0308 30.3048 11 30.15 11 29.9936C11 29.8372 11.0308 29.6824 11.0906 29.5379C11.1505 29.3934 11.2382 29.2622 11.3488 29.1516L22.4096 18.0922L11.3488 7.03283C11.1255 6.80951 11 6.50662 11 6.1908C11 5.87498 11.1255 5.5721 11.3488 5.34878C11.5721 5.12546 11.875 5 12.1908 5C12.5066 5 12.8095 5.12546 13.0328 5.34878L24.9342 17.2502C25.0449 17.3607 25.1327 17.492 25.1926 17.6365C25.2525 17.7809 25.2833 17.9358 25.2833 18.0922C25.2833 18.2486 25.2525 18.4035 25.1926 18.548C25.1327 18.6924 25.0449 18.8237 24.9342 18.9342Z" fill="#001F63"/>
</svg>
