<svg width="35" height="35" viewBox="0 0 35 35" fill="none" xmlns="http://www.w3.org/2000/svg">
<circle cx="17.5" cy="17.5" r="17.5" transform="rotate(-180 17.5 17.5)" fill="#F5EEE1"/>
<path d="M10.0658 16.0658L21.9672 4.16435C22.0777 4.05378 22.209 3.96606 22.3535 3.90622C22.498 3.84638 22.6528 3.81558 22.8092 3.81558C22.9656 3.81558 23.1204 3.84638 23.2649 3.90622C23.4094 3.96606 23.5406 4.05378 23.6512 4.16435C23.7618 4.27493 23.8495 4.4062 23.9094 4.55068C23.9692 4.69515 24 4.85 24 5.00638C24 5.16276 23.9692 5.31761 23.9094 5.46208C23.8495 5.60655 23.7618 5.73783 23.6512 5.8484L12.5904 16.9078L23.6512 27.9672C23.8745 28.1905 24 28.4934 24 28.8092C24 29.125 23.8745 29.4279 23.6512 29.6512C23.4279 29.8745 23.125 30 22.8092 30C22.4934 30 22.1905 29.8745 21.9672 29.6512L10.0658 17.7498C9.95511 17.6393 9.86732 17.508 9.80743 17.3635C9.74754 17.2191 9.71671 17.0642 9.71671 16.9078C9.71671 16.7514 9.74754 16.5965 9.80743 16.452C9.86732 16.3076 9.95511 16.1763 10.0658 16.0658Z" fill="#001F63"/>
</svg>
